# xmcd
#
# Track frame offsets: 
#        150
#        19954
#        36455
#        51693
#        71048
#        88372
#        109743
#        129965
#        147129
#        167331
#        183917
#        200792
#        219537
#        235442
#        254808
#        270424
#        285251
#        303302
#        325103
#        341659
#
# Disc length: 4799 seconds
#
# Revision: 0
# Processed by: cddbd v1.5.2PL0 Copyright (c) Steve Scherf et al.
# Submitted via: ExactAudioCopy v1.0b1
#
DISCID=3912bd14
DTITLE=Various Artist - 100 Hits - 80S Rewind - CD2
DYEAR=2011
DGENRE=80's
TTITLE0=Young MC - Bust A Move
TTITLE1=Joyce Sims - Lifetime Love
TTITLE2=Ten City - Devotions
TTITLE3=Simply Red - The Right Thing
TTITLE4=808 State - Pacific State
TTITLE5=Propaganda - Dr. Mabuse
TTITLE6=New Order - Round And Round
TTITLE7=Cookie Crew - Born This Way (Let's Dance)
TTITLE8=Chaka Khan - Eye To Eye
TTITLE9=Break Machine - Street Dance
TTITLE10=49ers - Touch Me
TTITLE11=KC and The Sunshine Band - Give It Up
TTITLE12=Village People - Can't Stop The Music
TTITLE13=Communards - There's More To Love (Than Boy Meets Girl)
TTITLE14=Keith Sweat  - I want Her
TTITLE15=Kleeer - Get Tough
TTITLE16=Anita Baker - Caught Up In The Rapture
TTITLE17=Karyn White - The Way You Love Me
TTITLE18=Randy Crawford - Rainy Night In Georgia
TTITLE19=Mint Juleps - Every Kinda People
EXTD=
EXTT0=
EXTT1=
EXTT2=
EXTT3=
EXTT4=
EXTT5=
EXTT6=
EXTT7=
EXTT8=
EXTT9=
EXTT10=
EXTT11=
EXTT12=
EXTT13=
EXTT14=
EXTT15=
EXTT16=
EXTT17=
EXTT18=
EXTT19=
PLAYORDER=
